<?xml version="1.0" encoding="UTF-8"?>
<svg id="Layer_1" data-name="Layer 1" xmlns="http://www.w3.org/2000/svg" xmlns:xlink="http://www.w3.org/1999/xlink" viewBox="0 0 1920 1080">
  <defs>
    <style>
      .cls-1 {
        fill: url(#linear-gradient);
      }

      .cls-1, .cls-2, .cls-3 {
        fill-rule: evenodd;
      }

      .cls-1, .cls-2, .cls-3, .cls-4, .cls-5, .cls-6, .cls-7, .cls-8 {
        stroke-width: 0px;
      }

      .cls-2 {
        fill: url(#linear-gradient-2);
      }

      .cls-3 {
        fill: #f7f7f7;
      }

      .cls-4 {
        fill: url(#linear-gradient-4);
      }

      .cls-5 {
        fill: url(#linear-gradient-3);
      }

      .cls-6 {
        fill: url(#linear-gradient-7);
      }

      .cls-7 {
        fill: url(#linear-gradient-5);
      }

      .cls-8 {
        fill: url(#linear-gradient-6);
      }
    </style>
    <linearGradient id="linear-gradient" x1="1010.4" y1="212.18" x2="1010.4" y2="836.18" gradientUnits="userSpaceOnUse">
      <stop offset="0" stop-color="#0ff0ef"/>
      <stop offset="1" stop-color="#0f8fef"/>
    </linearGradient>
    <linearGradient id="linear-gradient-2" x1="494.67" y1="150.26" x2="494.67" y2="654.26" gradientUnits="userSpaceOnUse">
      <stop offset=".11" stop-color="#a5ed3a"/>
      <stop offset="1" stop-color="#44bc1e"/>
    </linearGradient>
    <linearGradient id="linear-gradient-3" x1="489.67" y1="361.11" x2="489.67" y2="718.89" xlink:href="#linear-gradient"/>
    <linearGradient id="linear-gradient-4" x1="931.13" y1="246.59" x2="931.13" y2="718.89" xlink:href="#linear-gradient-2"/>
    <linearGradient id="linear-gradient-5" x1="1197.33" y1="274.12" x2="1197.33" y2="719.89" xlink:href="#linear-gradient-2"/>
    <linearGradient id="linear-gradient-6" x1="1517.8" y1="361.11" x2="1517.8" y2="718.89" xlink:href="#linear-gradient-2"/>
    <linearGradient id="linear-gradient-7" x1="782.45" y1="901.84" x2="2286.15" y2="901.84" gradientTransform="translate(-470.33)" gradientUnits="userSpaceOnUse">
      <stop offset="0" stop-color="#0f91ef"/>
      <stop offset="1" stop-color="#0f8fef"/>
    </linearGradient>
  </defs>
  <path class="cls-1" d="M327.4,212.18h1382c55.23,0,106,53.77,106,109v515H316.4c-55.23,0-111-56.77-111-112v-406c0-55.23,33.78-106,122-106Z"/>
  <path class="cls-2" d="M205.17,150.26h582c55.23,0,106,53.77,106,109v395H207.17c-55.23,0-111-56.77-111-112v-286c0-55.23,53.77-106,109-106Z"/>
  <path class="cls-3" d="M257.21,181.43h1382c55.23,0,106,53.77,106,109v515H246.21c-55.23,0-111-56.77-111-112v-406c0-55.23,33.78-106,122-106Z"/>
  <path class="cls-5" d="M207.4,718.89h122.87v-190.22c0-38.17,20.69-58.23,49.79-58.23s47.85,20.06,47.85,58.23v190.22h122.87v-190.22c0-38.17,21.34-58.23,50.44-58.23s47.85,20.06,47.85,58.23v190.22h122.87v-229.68c0-81.52-45.27-128.1-119.63-128.1-51.09,0-86.65,22-117.05,56.94-18.75-36.23-54.32-56.94-100.88-56.94-49.15,0-81.48,26.53-104.11,55.64v-47.88h-122.87v350.02Z"/>
  <path class="cls-4" d="M812.48,718.89h68.21v-189.57c0-38.17,21.99-58.88,51.73-58.88s49.15,20.7,49.15,58.88v189.57h122.87v-229.03c0-79.58-44.62-128.75-118.99-128.75-49.79,0-82.13,26.53-104.76,55.64v-170.16h-122.87v122.46c59,40.49,54.99,116.33,54.99,116.33l-.33,233.51Z"/>
  <path class="cls-7" d="M1223.01,719.89c34.27,0,63.37-7.76,85.36-20.06v-96.4c-14.87,7.12-30.39,11.65-46.56,11.65-22.63,0-33.63-10.35-33.63-34.94v-118.4h81.48v-98.99h-81.48v-88.64h-122.87v88.64h-20.31c58.33,42,54.33,113.51,54.33,113.51,0,0,.65,248.72.65,220.02,20.05,16.39,48.22,23.6,83.02,23.6Z"/>
  <path class="cls-8" d="M1344.49,718.89h122.87v-189.57c0-38.17,21.99-58.88,51.73-58.88s49.15,20.7,49.15,58.88v189.57h122.87v-229.03c0-79.58-44.62-128.75-118.99-128.75-49.79,0-82.13,27.82-104.76,56.94v-49.17h-122.87v350.02Z"/>
  <path class="cls-6" d="M346.23,920.29l-19.87-45.92h-14.23v61.75h12.53v-40.17l16.83,40.17h9.49l16.74-40.17v40.17h12.53v-61.75h-14.14l-19.87,45.92ZM426.93,889.33c-3.73-2-7.95-3.01-12.67-3.01s-9.22,1.03-12.98,3.1c-3.76,2.07-6.68,5.01-8.77,8.85-2.09,3.83-3.13,8.29-3.13,13.36s1.06,9.44,3.18,13.27c2.12,3.83,5.07,6.8,8.86,8.89,3.79,2.09,8.07,3.14,12.85,3.14,5.91,0,10.89-1.52,14.95-4.56,4.06-3.04,6.8-6.91,8.24-11.63h-13.52c-1.97,3.95-5.28,5.93-9.94,5.93-3.22,0-5.94-1-8.15-3.01-2.21-2-3.46-4.78-3.76-8.32h36.25c.24-1.42.36-3.01.36-4.78,0-4.78-1.03-9.01-3.09-12.7-2.06-3.69-4.95-6.53-8.68-8.54ZM402.17,907.02c.48-3.3,1.77-5.88,3.89-7.74,2.12-1.86,4.73-2.79,7.83-2.79,3.28,0,6.06.96,8.33,2.88,2.27,1.92,3.43,4.47,3.49,7.65h-23.54ZM475.31,886.41c-3.1,0-5.95.61-8.55,1.81-2.6,1.21-4.73,2.88-6.4,5v-6.1h-12.53v49.01h12.53v-27.07c0-3.89,1-6.89,3-8.98,2-2.09,4.73-3.14,8.19-3.14s6.09,1.05,8.06,3.14c1.97,2.09,2.95,5.09,2.95,8.98v27.07h12.53v-28.75c0-6.6-1.82-11.75-5.46-15.44-3.64-3.69-8.41-5.53-14.32-5.53ZM521.59,874.99h-12.62v12.12h-5.91v10.17h5.91v23.62c0,10.14,5.28,15.22,15.84,15.22h7.88v-10.44h-5.82c-1.91,0-3.27-.37-4.07-1.11-.81-.74-1.21-1.93-1.21-3.58v-23.71h11.1v-10.17h-11.1v-12.12ZM577.54,894.1c-1.67-2.24-3.89-4.1-6.67-5.57-2.78-1.47-6.01-2.21-9.71-2.21-4.24,0-8.07,1.03-11.5,3.1-3.43,2.07-6.15,5.01-8.15,8.85-2,3.83-3,8.23-3,13.18s1,9.45,3,13.31c2,3.86,4.71,6.86,8.15,8.98,3.43,2.12,7.24,3.18,11.41,3.18,3.7,0,6.97-.75,9.8-2.26,2.83-1.5,5.06-3.41,6.67-5.71v7.17h12.62v-49.01h-12.62v6.99ZM575.75,919.36c-1.19,2.15-2.81,3.8-4.83,4.95-2.03,1.15-4.21,1.73-6.53,1.73s-4.4-.59-6.4-1.77c-2-1.18-3.61-2.88-4.83-5.09-1.22-2.21-1.84-4.79-1.84-7.74s.61-5.5,1.84-7.65c1.22-2.15,2.82-3.79,4.79-4.91,1.97-1.12,4.12-1.68,6.45-1.68s4.51.58,6.53,1.73c2.03,1.15,3.64,2.8,4.83,4.95,1.19,2.15,1.79,4.73,1.79,7.74s-.6,5.59-1.79,7.74ZM602.42,936.13h12.53v-65.47h-12.53v65.47ZM687.91,899.77h-26.77v-25.39h-12.53v61.75h12.53v-26.28h26.77v26.28h12.53v-61.75h-12.53v25.39ZM747.13,889.33c-3.73-2-7.95-3.01-12.67-3.01s-9.22,1.03-12.98,3.1c-3.76,2.07-6.68,5.01-8.77,8.85-2.09,3.83-3.13,8.29-3.13,13.36s1.06,9.44,3.18,13.27c2.12,3.83,5.07,6.8,8.86,8.89,3.79,2.09,8.07,3.14,12.85,3.14,5.91,0,10.89-1.52,14.95-4.56,4.06-3.04,6.8-6.91,8.24-11.63h-13.52c-1.97,3.95-5.28,5.93-9.94,5.93-3.22,0-5.94-1-8.15-3.01-2.21-2-3.46-4.78-3.76-8.32h36.25c.24-1.42.36-3.01.36-4.78,0-4.78-1.03-9.01-3.09-12.7-2.06-3.69-4.95-6.53-8.68-8.54ZM722.38,907.02c.48-3.3,1.78-5.88,3.89-7.74,2.12-1.86,4.73-2.79,7.83-2.79,3.28,0,6.06.96,8.33,2.88,2.27,1.92,3.43,4.47,3.49,7.65h-23.54ZM803.84,894.1c-1.67-2.24-3.89-4.1-6.67-5.57-2.78-1.47-6.01-2.21-9.71-2.21-4.24,0-8.07,1.03-11.5,3.1-3.43,2.07-6.15,5.01-8.15,8.85-2,3.83-3,8.23-3,13.18s1,9.45,3,13.31c2,3.86,4.71,6.86,8.15,8.98,3.43,2.12,7.24,3.18,11.41,3.18,3.7,0,6.97-.75,9.8-2.26,2.83-1.5,5.06-3.41,6.67-5.71v7.17h12.62v-49.01h-12.62v6.99ZM802.05,919.36c-1.19,2.15-2.81,3.8-4.83,4.95-2.03,1.15-4.21,1.73-6.53,1.73s-4.4-.59-6.4-1.77c-2-1.18-3.61-2.88-4.83-5.09-1.22-2.21-1.84-4.79-1.84-7.74s.61-5.5,1.84-7.65c1.22-2.15,2.82-3.79,4.79-4.91,1.97-1.12,4.12-1.68,6.45-1.68s4.51.58,6.53,1.73c2.03,1.15,3.64,2.8,4.83,4.95,1.19,2.15,1.79,4.73,1.79,7.74s-.6,5.59-1.79,7.74ZM828.72,936.13h12.53v-65.47h-12.53v65.47ZM868.2,874.99h-12.62v12.12h-5.91v10.17h5.91v23.62c0,10.14,5.28,15.22,15.84,15.22h7.88v-10.44h-5.82c-1.91,0-3.27-.37-4.07-1.11-.81-.74-1.21-1.93-1.21-3.58v-23.71h11.1v-10.17h-11.1v-12.12ZM926.3,888.84c-2.92-1.62-6.27-2.43-10.03-2.43-3.28,0-6.27.61-8.95,1.81-2.69,1.21-4.83,2.88-6.45,5v-22.56h-12.53v65.47h12.53v-27.07c0-3.89,1-6.89,3-8.98,2-2.09,4.73-3.14,8.19-3.14s6.09,1.05,8.06,3.14c1.97,2.09,2.95,5.09,2.95,8.98v27.07h12.53v-28.75c0-4.42-.82-8.21-2.46-11.37-1.64-3.15-3.92-5.54-6.85-7.17ZM965.5,884.37h16.65v51.75h12.53v-51.75h16.65v-10h-45.83v10ZM1054.8,889.33c-3.73-2-7.95-3.01-12.67-3.01s-9.22,1.03-12.98,3.1c-3.76,2.07-6.68,5.01-8.77,8.85-2.09,3.83-3.13,8.29-3.13,13.36s1.06,9.44,3.18,13.27c2.12,3.83,5.07,6.8,8.86,8.89,3.79,2.09,8.07,3.14,12.85,3.14,5.91,0,10.89-1.52,14.95-4.56,4.06-3.04,6.8-6.91,8.24-11.63h-13.52c-1.97,3.95-5.28,5.93-9.94,5.93-3.22,0-5.94-1-8.15-3.01-2.21-2-3.46-4.78-3.76-8.32h36.25c.24-1.42.36-3.01.36-4.78,0-4.78-1.03-9.01-3.09-12.7-2.06-3.69-4.95-6.53-8.68-8.54ZM1030.05,907.02c.48-3.3,1.77-5.88,3.89-7.74,2.12-1.86,4.73-2.79,7.83-2.79,3.28,0,6.06.96,8.33,2.88,2.27,1.92,3.43,4.47,3.49,7.65h-23.54ZM1075.7,936.13h12.53v-65.47h-12.53v65.47ZM1134.92,889.33c-3.73-2-7.95-3.01-12.67-3.01s-9.22,1.03-12.98,3.1c-3.76,2.07-6.68,5.01-8.77,8.85-2.09,3.83-3.13,8.29-3.13,13.36s1.06,9.44,3.18,13.27c2.12,3.83,5.07,6.8,8.86,8.89,3.79,2.09,8.07,3.14,12.85,3.14,5.91,0,10.89-1.52,14.95-4.56,4.06-3.04,6.8-6.91,8.24-11.63h-13.52c-1.97,3.95-5.28,5.93-9.94,5.93-3.22,0-5.94-1-8.15-3.01-2.21-2-3.46-4.78-3.76-8.32h36.25c.24-1.42.36-3.01.36-4.78,0-4.78-1.03-9.01-3.09-12.7-2.06-3.69-4.95-6.53-8.68-8.54ZM1110.16,907.02c.48-3.3,1.78-5.88,3.89-7.74,2.12-1.86,4.73-2.79,7.83-2.79,3.28,0,6.06.96,8.33,2.88,2.27,1.92,3.43,4.47,3.49,7.65h-23.54ZM1176.5,924.71l-12.53-37.6h-13.43l18.26,49.01h15.22l18.35-49.01h-13.34l-12.53,37.6ZM1215.79,866.77c-2.21,0-4.04.69-5.51,2.08-1.46,1.39-2.19,3.11-2.19,5.18s.73,3.79,2.19,5.18c1.46,1.39,3.3,2.08,5.51,2.08s4.04-.69,5.51-2.08c1.46-1.39,2.19-3.11,2.19-5.18s-.73-3.79-2.19-5.18c-1.46-1.39-3.3-2.08-5.51-2.08ZM1209.44,936.13h12.53v-49.01h-12.53v49.01ZM1264.13,909.94c-2.33-.94-5.28-1.86-8.86-2.74-3.52-.88-6.12-1.75-7.79-2.61-1.67-.85-2.51-2.11-2.51-3.76,0-1.47.61-2.62,1.84-3.45,1.22-.83,2.97-1.24,5.24-1.24,2.45,0,4.4.58,5.86,1.73,1.46,1.15,2.28,2.7,2.46,4.64h12c-.36-4.95-2.3-8.89-5.82-11.81-3.52-2.92-8.24-4.38-14.14-4.38-4,0-7.47.65-10.43,1.95-2.95,1.3-5.22,3.07-6.8,5.31-1.58,2.24-2.37,4.72-2.37,7.43,0,3.3.85,5.93,2.55,7.87,1.7,1.95,3.73,3.39,6.09,4.34,2.36.94,5.39,1.86,9.09,2.74,3.58.94,6.19,1.81,7.83,2.61,1.64.8,2.46,1.99,2.46,3.58,0,1.48-.67,2.68-2.01,3.63-1.34.94-3.21,1.42-5.59,1.42s-4.49-.62-6.13-1.86c-1.64-1.24-2.58-2.8-2.82-4.69h-12.62c.18,3.01,1.21,5.75,3.09,8.23,1.88,2.48,4.43,4.44,7.65,5.88,3.22,1.44,6.86,2.17,10.92,2.17s7.39-.63,10.34-1.9c2.95-1.27,5.22-3.02,6.8-5.26,1.58-2.24,2.37-4.78,2.37-7.61-.06-3.24-.94-5.85-2.64-7.83-1.7-1.98-3.72-3.44-6.04-4.38ZM1289.47,866.77c-2.21,0-4.04.69-5.51,2.08-1.46,1.39-2.19,3.11-2.19,5.18s.73,3.79,2.19,5.18c1.46,1.39,3.3,2.08,5.51,2.08s4.04-.69,5.51-2.08c1.46-1.39,2.19-3.11,2.19-5.18s-.73-3.79-2.19-5.18c-1.46-1.39-3.3-2.08-5.51-2.08ZM1283.11,936.13h12.53v-49.01h-12.53v49.01ZM1343.36,889.46c-3.88-2.09-8.21-3.14-12.98-3.14s-9.1,1.05-12.98,3.14c-3.88,2.09-6.94,5.06-9.18,8.89-2.24,3.83-3.36,8.26-3.36,13.27s1.09,9.44,3.27,13.27c2.18,3.83,5.18,6.8,9,8.89,3.82,2.09,8.12,3.14,12.89,3.14s9.2-1.05,13.11-3.14c3.91-2.09,7.01-5.06,9.31-8.89,2.3-3.83,3.45-8.26,3.45-13.27s-1.12-9.44-3.36-13.27c-2.24-3.83-5.3-6.8-9.18-8.89ZM1341.21,919.58c-1.19,2.18-2.79,3.82-4.79,4.91-2,1.09-4.13,1.64-6.4,1.64-3.58,0-6.55-1.25-8.91-3.76-2.36-2.51-3.54-6.09-3.54-10.75s1.21-8.24,3.63-10.75c2.42-2.51,5.42-3.76,9-3.76s6.61,1.25,9.09,3.76c2.48,2.51,3.71,6.09,3.71,10.75,0,3.13-.6,5.78-1.79,7.96ZM1392.59,886.41c-3.1,0-5.95.61-8.55,1.81-2.6,1.21-4.73,2.88-6.4,5v-6.1h-12.53v49.01h12.53v-27.07c0-3.89,1-6.89,3-8.98,2-2.09,4.73-3.14,8.19-3.14s6.09,1.05,8.06,3.14c1.97,2.09,2.95,5.09,2.95,8.98v27.07h12.53v-28.75c0-6.6-1.82-11.75-5.46-15.44-3.64-3.69-8.41-5.53-14.32-5.53ZM1486.49,916.75l-28.38-42.47h-12.53v61.84h12.53v-42.38l28.38,42.38h12.53v-61.84h-12.53v42.47ZM1545.71,889.33c-3.73-2-7.95-3.01-12.67-3.01s-9.22,1.03-12.98,3.1c-3.76,2.07-6.68,5.01-8.77,8.85-2.09,3.83-3.13,8.29-3.13,13.36s1.06,9.44,3.18,13.27c2.12,3.83,5.07,6.8,8.86,8.89,3.79,2.09,8.07,3.14,12.85,3.14,5.91,0,10.89-1.52,14.95-4.56,4.06-3.04,6.8-6.91,8.24-11.63h-13.52c-1.97,3.95-5.28,5.93-9.94,5.93-3.22,0-5.94-1-8.15-3.01-2.21-2-3.46-4.78-3.76-8.32h36.25c.24-1.42.36-3.01.36-4.78,0-4.78-1.03-9.01-3.09-12.7-2.06-3.69-4.95-6.53-8.68-8.54ZM1520.96,907.02c.48-3.3,1.78-5.88,3.89-7.74,2.12-1.86,4.73-2.79,7.83-2.79,3.28,0,6.06.96,8.33,2.88,2.27,1.92,3.43,4.47,3.49,7.65h-23.54ZM1581.2,874.99h-12.62v12.12h-5.91v10.17h5.91v23.62c0,10.14,5.28,15.22,15.84,15.22h7.88v-10.44h-5.82c-1.91,0-3.27-.37-4.07-1.11-.81-.74-1.21-1.93-1.21-3.58v-23.71h11.1v-10.17h-11.1v-12.12ZM1649.32,924.36l-9.31-37.25h-13.25l-9.49,37.33-8.77-37.33h-12.71l14.59,49.01h13.61l9.04-34.24,9.04,34.24h13.52l14.5-49.01h-12l-8.77,37.25ZM1712.26,889.46c-3.88-2.09-8.21-3.14-12.98-3.14s-9.1,1.05-12.98,3.14c-3.88,2.09-6.94,5.06-9.18,8.89-2.24,3.83-3.36,8.26-3.36,13.27s1.09,9.44,3.27,13.27c2.18,3.83,5.18,6.8,9,8.89,3.82,2.09,8.12,3.14,12.89,3.14s9.21-1.05,13.11-3.14c3.91-2.09,7.01-5.06,9.31-8.89,2.3-3.83,3.45-8.26,3.45-13.27s-1.12-9.44-3.36-13.27c-2.24-3.83-5.3-6.8-9.18-8.89ZM1710.11,919.58c-1.19,2.18-2.79,3.82-4.79,4.91-2,1.09-4.13,1.64-6.4,1.64-3.58,0-6.55-1.25-8.91-3.76-2.36-2.51-3.54-6.09-3.54-10.75s1.21-8.24,3.63-10.75c2.42-2.51,5.42-3.76,9-3.76s6.61,1.25,9.09,3.76c2.48,2.51,3.72,6.09,3.72,10.75,0,3.13-.6,5.78-1.79,7.96ZM1746.54,894.72v-7.61h-12.53v49.01h12.53v-24.42c0-4.54,1-7.73,3-9.55,2-1.83,4.97-2.74,8.91-2.74h3.31v-13.01c-3.34,0-6.31.74-8.91,2.21-2.6,1.47-4.7,3.51-6.31,6.1ZM1793.8,911.71l21.84-24.59h-16.29l-16.65,20.79v-37.25h-12.53v65.47h12.53v-20.88l16.83,20.88h16.29l-22.02-24.42Z"/>
</svg>